<?xml version="1.0" standalone="no"?>
<!DOCTYPE svg PUBLIC "-//W3C//DTD SVG 20010904//EN"
 "http://www.w3.org/TR/2001/REC-SVG-20010904/DTD/svg10.dtd">
<svg version="1.0" xmlns="http://www.w3.org/2000/svg"
 width="100.000000pt" height="100.000000pt" viewBox="0 0 100.000000 100.000000"
 preserveAspectRatio="xMidYMid meet">
<metadata>
Created by potrace 1.11, written by Peter Selinger 2001-2013
</metadata>
<g transform="translate(0.000000,100.000000) scale(0.100000,-0.100000)"
fill="#000000" stroke="none">
<path d="M387 944 c-113 -29 -227 -114 -285 -213 -34 -58 -62 -162 -62 -231 0
-70 23 -159 56 -221 34 -61 122 -149 183 -183 251 -136 565 -12 656 259 54
163 12 345 -110 467 -118 118 -280 163 -438 122z m261 -52 c122 -47 218 -152
256 -279 14 -51 16 -167 2 -223 -21 -89 -109 -202 -196 -253 -177 -104 -424
-54 -545 111 -57 77 -78 143 -78 247 0 103 3 119 38 192 49 98 143 179 252
213 75 24 196 20 271 -8z"/>
<path d="M294 614 c-37 -55 25 -117 80 -80 32 20 34 58 6 86 -28 28 -66 26
-86 -6z"/>
<path d="M620 620 c-11 -11 -20 -29 -20 -40 0 -11 9 -29 20 -40 11 -11 29 -20
40 -20 11 0 29 9 40 20 11 11 20 29 20 40 0 11 -9 29 -20 40 -11 11 -29 20
-40 20 -11 0 -29 -9 -40 -20z"/>
<path d="M225 410 c-16 -26 66 -104 151 -142 68 -31 180 -31 248 0 90 41 171
121 147 145 -7 7 -27 -6 -66 -41 -133 -122 -282 -120 -415 4 -50 47 -55 50
-65 34z"/>
</g>
</svg>
